<svg xmlns="http://www.w3.org/2000/svg" version="1.1" xmlns:xlink="http://www.w3.org/1999/xlink" xmlns:svgjs="http://svgjs.dev/svgjs" width="1000" height="1000" viewBox="0 0 1000 1000"><rect width="1000" height="1000" fill="#1f2d5a"></rect><g transform="matrix(0.7,0,0,0.7,150,106.25)"><svg viewBox="0 0 320 360" data-background-color="#1f2d5a" preserveAspectRatio="xMidYMid meet" height="1125" width="1000" xmlns="http://www.w3.org/2000/svg" xmlns:xlink="http://www.w3.org/1999/xlink"><g id="tight-bounds" transform="matrix(1,0,0,1,0,0)"><svg viewBox="0 0 320 360" height="360" width="320"><g><svg></svg></g><g><svg viewBox="0 0 320 360" height="360" width="320"><g><path xmlns="http://www.w3.org/2000/svg" d="M219.58 41.008c0.707 0 6.365 2.829 9.547 3.89-1.061 0.354-3.536-0.707-6.365-1.768 0.707 0 2.122 0.354 3.536 1.06-0.707-0.707-6.011-2.475-6.718-3.182M166.895 30.047c1.061-0.354 13.436 1.414 19.094 1.768 0.354-0.354-0.707-0.354-2.122-0.707 1.768-0.354 5.304 0.707 7.779 1.06-7.425 0.354-15.558-1.768-22.629-1.06-2.475 0-0.707-0.707-2.122-1.061M156.641 30.047c6.365 0 11.315 0 2.121 0.707-1.061-0.354-2.475-0.354-2.121-0.707M256.707 59.395c0.707 0 3.536 3.182 4.95 4.243-0.354 0.354-3.182-2.475-4.596-3.536 0.354 0.354 0 0-0.354-0.707M249.635 54.798c-2.829-2.475-3.889-2.475-4.243-3.889 2.475 1.414 4.243 2.829 4.243 3.889M204.022 32.522c0.354-0.354 1.061 0.354 2.829 0.707-2.122-0.354-1.768 0-1.061 0.707-2.475-0.354-3.182-0.707-2.475-1.414 1.414 0.707 1.768 0.354 0.707 0M103.602 36.765c0-0.354 1.414-1.061 2.475-1.414-1.061 0.707-0.707 1.061 1.061 0.353 0 0.354-2.122 1.061-3.536 1.768 0.707-0.354 1.414-1.414 0-0.707M211.094 28.986c-1.061 0.354-4.95-1.768-8.84-2.475-2.122-0.707 8.486 1.768 8.84 2.475M2.475 203.66c2.122 8.84 0.707 8.486 0 0M2.829 150.621c0.354-1.414 0.707-5.304 1.06-4.95-1.061 8.486-2.829 12.376-3.182 18.74 1.061-5.657-0.354 3.182-0.707 5.304 0.354 2.829 0.354-1.768 1.061-1.06 0.707 1.061-1.414 15.912-0.707 7.779-0.707 7.425 0 15.558 1.414 17.679-1.768 11.315 7.072 36.773 8.84 42.077 0.354 0.354 0-1.768 0.707-0.353 0.707 4.597 3.889 7.779 4.95 12.729 1.061 1.414 5.304 9.193 6.011 10.962 1.414 2.829 2.122 2.475 3.536 5.303 4.243 8.133 10.961 15.912 17.326 23.337 20.508 24.044 51.978 43.845 86.984 50.918 35.006 7.425 71.779 2.122 100.419-11.669 1.768-1.061 1.414-1.414 3.536-2.122 9.901-3.182 21.923-13.436 28.641-17.326 3.182-3.536 11.669-9.547 12.73-13.082 6.011-4.95 12.022-13.083 15.204-18.387 1.768-2.829 3.182-2.829 3.889-4.597-0.354 0 5.657-7.425 7.426-11.668-0.707 0-1.768 2.122-1.768 0 12.729-24.398 19.801-57.282 15.911-79.912 0.707 27.934-6.365 59.05-19.801 78.851-6.011 12.729-18.387 26.519-29.701 36.42-1.768 1.768-3.536 3.889-5.658 5.304-6.718 5.657-14.144 10.254-21.922 14.497-18.387 10.254-38.895 19.094-62.94 19.447 41.37-3.536 78.497-24.398 99.006-49.856-15.558 15.204-22.276 21.215-39.602 30.055-1.414 2.475-13.083 7.425-20.862 9.547 4.597-2.122 14.144-5.657 17.326-8.486-25.812 12.376-54.453 19.448-81.326 15.558 10.254 0 24.751 0.354 38.541-2.121 2.122-0.707 3.182-1.414 5.658-1.768 26.873-6.011 52.685-19.094 71.072-37.481-10.608 9.547-26.519 20.862-36.774 24.398 9.547-5.304 26.873-15.558 32.53-23.337-11.315 11.315-32.53 22.63-45.966 27.58-2.122 0.354 1.414-1.414-2.122 0-4.243 1.061-2.475 1.061-3.536 1.768-16.265 4.597-35.006 8.486-50.563 7.072-2.829-0.354-3.889-1.061-6.365-1.061-2.829-0.354-5.304-0.354-8.486-0.354-12.376-1.414-25.812-6.365-35.713-10.607-5.304-2.475-10.608-4.243-15.912-7.426-4.243-2.475-7.779-5.304-11.314-8.132-13.436-9.901-24.751-19.801-35.36-33.945-19.094-26.519-28.994-59.757-27.58-92.641 1.414-32.884 14.497-65.061 35.359-88.752-1.061 1.061 1.414-2.475 3.536-4.596 0 0.707-0.354 1.768 2.122-0.707 2.122-2.475-0.707-0.707 0.353-2.122 21.923-24.044 60.111-43.492 99.36-44.199 1.414-1.061 3.889-2.475 6.718-1.768 0 0.354-1.768 0.354-1.768 0.354 3.889-0.354 7.425-0.354 9.193 0.353 0.354-0.354-1.414-0.707 0-0.707 2.475 0.707 3.182 0 4.597 0.707-1.061 0-2.122 0-2.829 0.354 8.84 0 14.497 2.122 23.337 2.829-4.597-1.061-5.657-1.061-9.193-2.122 3.889 0.707 5.657 1.414 7.425 1.061-0.707 0-0.354-1.061 0.354-0.707 7.072 1.768 7.779 2.475 15.204 4.95 0.707-0.707-3.182-1.061-4.243-2.122 7.072 2.475 13.436 4.243 17.68 7.072-1.414-1.061-5.657-2.475-8.84-3.889-0.354 0.354 1.061 0.707 1.414 1.414-3.536-1.768-8.486-3.536-13.436-4.243 4.243 1.061 7.072 2.475 8.84 3.182-3.889-0.707-8.84-3.182-14.498-4.243 9.193 2.829 26.519 9.193 37.127 14.851-3.889-2.475-8.486-4.243-10.961-5.657 2.122 0.354 4.597 1.768 4.597 1.06 2.475 1.061 5.657 3.536 7.425 3.89-3.182-2.122-9.547-5.304-11.668-6.365 26.519 12.022 50.21 32.177 65.414 57.989 1.414 2.475 3.536 8.133 5.304 8.84-0.354-1.768-1.768-2.829-3.182-5.657 0.707 0 0.707-1.061 0-2.122-1.414-1.768 0 1.414-1.415-0.354-6.365-11.669-14.144-21.923-26.165-33.237 6.718 6.365 1.768 1.768 0.353-0.354 9.193 8.133 19.801 21.923 24.398 28.995-0.707-1.061-1.061-1.768-0.707-1.768 8.486 14.497 13.79 27.58 19.094 46.32 0.354 0.354 0-1.414 0.707-0.353 3.536 14.851 4.597 27.227 4.243 38.541 2.829-19.094-3.536-48.796-14.851-72.133-1.414-2.829-1.414-0.707-2.829-3.889 0-1.061-1.061-3.182-1.768-4.597-14.144-23.337-31.47-39.956-51.978-53.038 1.414 0.707 4.243 2.829 4.244 2.475-38.188-25.105-82.387-28.641-118.807-20.862-2.475 1.061-3.536 2.122-6.365 3.536 5.304-1.768 8.486-2.122 13.437-3.183 1.061-1.061-4.597 0.354-2.122-0.707 0.354 0.354 4.95-0.707 6.011-0.353 0 0.354-1.414 0.707-1.768 1.06 11.669-2.475 23.691-2.829 33.945-2.121-6.011 0.354-16.972-0.707-20.508 1.061 3.536-0.354 8.486-0.707 11.668-0.354-4.243 0-12.022 0.354-15.558 0.707-0.354-0.354 5.657-1.061 1.768-1.06-1.768 0.354-4.597 0.354-5.657 1.414-30.409 2.829-60.111 18.74-80.973 37.481-4.243 3.536-9.193 7.425-12.375 11.314-7.779 8.84-12.729 17.68-18.387 25.459 3.536-7.425 11.315-18.74 20.508-28.287 9.193-9.547 19.094-17.68 24.398-21.923 0 1.414 8.486-5.304 11.669-7.425-2.122 1.768 1.414-0.707 2.121-0.354 11.315-6.718 20.508-9.193 30.763-13.083-2.475 0.707-4.597 1.414-4.951 1.061 2.475-0.707 3.889-1.414 3.536-1.768-9.901 2.829-25.459 9.547-37.834 16.972 22.276-15.204 50.564-24.398 78.497-24.751 27.934-0.707 55.16 6.365 76.729 17.68 14.497 6.365 28.287 18.033 39.249 29.348 3.182 2.829 0.707-0.707 5.304 4.243-1.414-0.707-2.475-1.414-0.707 0.707 2.829 3.182-0.707-2.475 3.889 3.182-0.354 0-1.768-1.768-1.768-1.061 12.376 10.961 21.923 30.762 27.58 43.846-1.414-5.304-4.95-12.729-7.779-18.033 8.486 15.558 11.315 24.751 14.851 38.541 1.414 1.061-0.707-4.95 0.707-2.121 0.354 2.122 0.707 8.84 2.122 9.9-1.061-6.718-2.829-14.851-4.243-16.265 1.061 0.707-1.768-8.133-3.536-10.254-0.707-5.657-5.657-15.558-9.901-22.984-15.204-29.702-42.431-54.099-72.839-67.536 0-0.707-1.768-1.414-2.476-2.121-30.055-12.729-66.122-16.265-100.773-8.133-35.006 8.486-67.889 28.641-91.227 57.636 1.061-3.536 9.901-10.254 10.255-13.083-10.254 10.961-21.215 25.459-28.641 41.016-7.779 15.558-12.022 31.47-13.79 43.138" fill="#fbfbfb" fill-rule="nonzero" stroke="none" stroke-width="1" stroke-linecap="butt" stroke-linejoin="miter" stroke-miterlimit="10" stroke-dasharray="" stroke-dashoffset="0" font-family="none" font-weight="none" font-size="none" text-anchor="none" style="mix-blend-mode: normal" data-fill-palette-color="tertiary"></path></g><g transform="matrix(1,0,0,1,48,163.70221644394914)"><svg viewBox="0 0 224 32.5955671121017" height="32.5955671121017" width="224"><g><svg viewBox="0 0 281.21224578499437 40.92085995638224" height="32.5955671121017" width="224"><g><rect width="2.2945663506108014" height="40.92085995638224" x="48.91096123906733" y="0" fill="#fbfbfb" opacity="1" stroke-width="0" stroke="transparent" fill-opacity="1" class="rect-o-0" data-fill-palette-color="primary" rx="1%" id="o-0" data-palette-color="#fbfbfb"></rect></g><g transform="matrix(1,0,0,1,57.212245784994366,0.10179318397109682)"><svg viewBox="0 0 224 40.717273588440044" height="40.717273588440044" width="224"><g id="textblocktransform"><svg viewBox="0 0 224 40.717273588440044" height="40.717273588440044" width="224" id="textblock"><g><svg viewBox="0 0 224 25.444001911741275" height="25.444001911741275" width="224"><g transform="matrix(1,0,0,1,0,0)"><svg width="224" viewBox="1.75 -35 313.8299865722656 35.650001525878906" height="25.444001911741275" data-palette-color="#fbfbfb"><path d="M44.7-29.05L38.7-29.05 38.7-5.25 44.7-5.25 44.7 0 26.05 0 26.05-5.25 32.05-5.25 32.05-15 14.4-15 14.4-5.25 20.4-5.25 20.4 0 1.75 0 1.75-5.25 7.75-5.25 7.75-29.05 1.75-29.05 1.75-34.3 20.4-34.3 20.4-29.05 14.4-29.05 14.4-19.95 32.05-19.95 32.05-29.05 26.05-29.05 26.05-34.3 44.7-34.3 44.7-29.05ZM83.3-5.25L88.1-5.25 88.1 0 71.15 0 71.15-5.25 76.4-5.25 73.9-11.75 60.25-11.75 57.75-5.25 63.5-5.25 63.5 0 46.8 0 46.8-5.25 51.5-5.25 61.65-29.1 57.35-29.1 57.35-34.3 77.4-34.3 77.4-29.1 73.05-29.1 83.3-5.25ZM62.05-16.45L72.1-16.45 67.2-29.1 66.95-29.1 62.05-16.45ZM116.75-13.15L123-13.15 123 0 90.25 0 90.25-5.25 96.25-5.25 96.25-29.05 90.25-29.05 90.25-34.3 108.84-34.3 108.84-29.05 102.84-29.05 102.84-5.25 116.75-5.25 116.75-13.15ZM153.14-13.15L159.39-13.15 159.39 0 126.64 0 126.64-5.25 132.64-5.25 132.64-29.05 126.64-29.05 126.64-34.3 145.24-34.3 145.24-29.05 139.24-29.05 139.24-5.25 153.14-5.25 153.14-13.15ZM181.34 0.65Q176.14 0.65 171.97-1.68 167.79-4 165.42-8.05 163.04-12.1 163.04-17.15L163.04-17.15Q163.04-22.2 165.42-26.28 167.79-30.35 171.99-32.68 176.19-35 181.34-35L181.34-35Q186.44-35 190.62-32.68 194.79-30.35 197.17-26.28 199.54-22.2 199.54-17.15L199.54-17.15Q199.54-12.15 197.17-8.08 194.79-4 190.62-1.68 186.44 0.65 181.34 0.65L181.34 0.65ZM181.34-4.75Q184.64-4.75 187.22-6.38 189.79-8 191.19-10.85 192.59-13.7 192.59-17.15L192.59-17.15Q192.59-20.65 191.19-23.5 189.79-26.35 187.24-27.98 184.69-29.6 181.34-29.6L181.34-29.6Q177.89-29.6 175.32-27.95 172.74-26.3 171.34-23.48 169.94-20.65 169.94-17.15L169.94-17.15Q169.94-13.6 171.34-10.8 172.74-8 175.32-6.38 177.89-4.75 181.34-4.75L181.34-4.75ZM233.64-11.25L237.94-7.75Q235.29-3.85 231.36-1.6 227.44 0.65 222.24 0.65L222.24 0.65Q217.19 0.65 213.01-1.65 208.84-3.95 206.41-8 203.99-12.05 203.99-17.05L203.99-17.05Q203.99-22.25 206.29-26.35 208.59-30.45 212.46-32.73 216.34-35 220.84-35L220.84-35Q227.29-35 231.29-30.7L231.29-30.7 231.29-34.3 237.24-34.3 237.24-22.75 232.94-22.35Q231.39-25.75 228.64-27.75 225.89-29.75 221.84-29.75L221.84-29.75Q218.99-29.75 216.46-28.23 213.94-26.7 212.41-23.83 210.89-20.95 210.89-17.15L210.89-17.15Q210.89-13.65 212.39-10.83 213.89-8 216.49-6.38 219.09-4.75 222.24-4.75L222.24-4.75Q226.14-4.75 228.81-6.43 231.49-8.1 233.64-11.25L233.64-11.25ZM275.69-5.25L280.49-5.25 280.49 0 263.54 0 263.54-5.25 268.79-5.25 266.29-11.75 252.64-11.75 250.14-5.25 255.89-5.25 255.89 0 239.19 0 239.19-5.25 243.89-5.25 254.04-29.1 249.74-29.1 249.74-34.3 269.79-34.3 269.79-29.1 265.44-29.1 275.69-5.25ZM254.44-16.45L264.49-16.45 259.59-29.1 259.34-29.1 254.44-16.45ZM279.63-34.3L315.58-34.3 315.58-22.05 309.78-22.05 309.78-29.05 300.98-29.05 300.98-5.25 306.98-5.25 306.98 0 288.33 0 288.33-5.25 294.33-5.25 294.33-29.05 285.43-29.05 285.43-22.05 279.63-22.05 279.63-34.3Z" opacity="1" transform="matrix(1,0,0,1,0,0)" fill="#fbfbfb" class="undefined-text-0" data-fill-palette-color="primary" id="text-0"></path></svg></g></svg></g><g transform="matrix(1,0,0,1,0,31.450720107057506)"><svg viewBox="0 0 131.51039999999998 9.266553481382534" height="9.266553481382534" width="131.51039999999998"><g transform="matrix(1,0,0,1,0,0)"><svg width="131.51039999999998" viewBox="3 -32.400001525878906 598.8499755859375 42.20000076293945" height="9.266553481382534" data-palette-color="#fbfbfb"><path d="M9.1 0L3 0 3-32.4 9.1-32.4 9.1-21.4Q11.2-21.8 14.15-22.1 17.1-22.4 20.9-22.4L20.9-22.4 23.4-22.4Q25.9-22.4 27.25-21.7 28.6-21 29.18-19.95 29.75-18.9 29.88-17.82 30-16.75 30-16L30-16 30 0 23.9 0 23.9-16.1Q23.9-18.1 21.5-18.1L21.5-18.1 10.6-18.1Q9.65-18.1 9.38-17.93 9.1-17.75 9.1-17L9.1-17 9.1 0ZM51.9 0L41.85 0Q39.35 0 38-0.65 36.65-1.3 36.07-2.3 35.5-3.3 35.37-4.4 35.25-5.5 35.25-6.4L35.25-6.4 35.25-16Q35.25-16.75 35.37-17.82 35.5-18.9 36.07-19.95 36.65-21 38.02-21.7 39.4-22.4 41.85-22.4L41.85-22.4 52.6-22.4Q55.9-22.4 57.77-21.78 59.65-21.15 60.42-19.75 61.2-18.35 61.2-16L61.2-16 61.2-8.6 52.45-8.6Q47.95-8.6 45.12-8.8 42.3-9 41.35-9.05L41.35-9.05 41.35-6.3Q41.3-4.3 43.75-4.3L43.75-4.3 46.3-4.3Q49-4.3 51.57-4.38 54.15-4.45 56.3-4.58 58.45-4.7 59.75-4.8L59.75-4.8 61.75-1.55Q61.75 0 51.9 0L51.9 0ZM41.35-16.1L41.35-12.9 55.1-12.9 55.1-16.1Q55.1-17.1 54.87-17.5 54.65-17.9 53.55-18 52.45-18.1 49.8-18.1L49.8-18.1 43.75-18.1Q41.35-18.1 41.35-16.1L41.35-16.1ZM75.7 0L73.2 0Q69.4 0 67.7-1.78 66-3.55 66-6.65L66-6.65Q66-9.9 67.77-11.65 69.55-13.4 73.2-13.4L73.2-13.4 75.75-13.4Q79.5-13.4 82.5-13.2 85.5-13 87.45-12.8L87.45-12.8 87.45-16.1Q87.45-16.55 87.34-17.03 87.25-17.5 86.75-17.8 86.25-18.1 85.05-18.1L85.05-18.1 82.55-18.1Q77.09-18.1 73.45-17.93 69.8-17.75 68.5-17.6L68.5-17.6 67.95-21.4Q67.95-22.1 71.75-22.25 75.55-22.4 84.45-22.4L84.45-22.4 86.95-22.4Q89.45-22.4 90.8-21.7 92.15-21 92.72-19.95 93.3-18.9 93.42-17.82 93.55-16.75 93.55-16L93.55-16 93.55 0 89.45 0 87.5-1Q85.4-0.65 82.45-0.33 79.5 0 75.7 0L75.7 0ZM74.5-4.3L74.5-4.3 85.95-4.3Q87.05-4.3 87.25-4.5 87.45-4.7 87.45-5.75L87.45-5.75 87.45-9.6 74.5-9.6Q73.15-9.6 72.62-8.95 72.09-8.3 72.09-6.9L72.09-6.9Q72.09-5.5 72.7-4.9 73.3-4.3 74.5-4.3ZM105.89 0L99.79 0 99.79-27.7 99.29-31.7 105.89-31.7 105.89 0ZM122.14 0L120.59 0Q116.79 0 115.39-1.6 113.99-3.2 113.99-6.4L113.99-6.4 113.99-18.1 109.89-18.1 109.89-22.4 111.99-22.4Q112.94-22.4 113.37-22.7 113.79-23 113.99-23.9L113.99-23.9 114.99-29.25 120.09-29.25 120.09-22.4 130.49-22.4 130.49-18.1 120.09-18.1 120.09-6.35Q120.09-5.1 120.69-4.7 121.29-4.3 122.49-4.3L122.49-4.3 129.54-4.3 130.04-0.5Q128.99-0.35 126.84-0.18 124.69 0 122.14 0L122.14 0ZM137.94 9.8L136.59 9.8Q134.19 9.8 132.19 9.25 130.19 8.7 129.49 8.25L129.49 8.25 130.99 3.75Q131.84 4.1 133.41 4.58 134.99 5.05 136.99 5.05L136.99 5.05 137.54 5.05Q139.84 5.05 141.61 3.68 143.39 2.3 144.34 0L144.34 0 141.84 0 132.04-22.4 139.04-22.4 144.79-8.6 146.09-5 146.59-5 147.89-8.6 153.74-22.4 160.54-22.4 159.74-19.35Q158.79-17.4 157.56-14.88 156.34-12.35 155.04-9.65 153.74-6.95 152.51-4.45 151.29-1.95 150.34 0L150.34 0Q148.89 3 147.16 5.2 145.44 7.4 143.21 8.6 140.99 9.8 137.94 9.8L137.94 9.8ZM191.18 0L181.13 0Q178.63 0 177.28-0.65 175.93-1.3 175.36-2.3 174.78-3.3 174.66-4.4 174.53-5.5 174.53-6.4L174.53-6.4 174.53-16Q174.53-16.75 174.66-17.82 174.78-18.9 175.36-19.95 175.93-21 177.31-21.7 178.68-22.4 181.13-22.4L181.13-22.4 188.08-22.4Q194.33-22.4 196.96-22.08 199.58-21.75 199.58-21.4L199.58-21.4 198.58-17.6Q197.18-17.7 195.03-17.82 192.88-17.95 190.41-18.03 187.93-18.1 185.58-18.1L185.58-18.1 183.03-18.1Q180.63-18.1 180.63-16.1L180.63-16.1 180.63-6.3Q180.58-4.3 183.03-4.3L183.03-4.3 185.58-4.3Q188.28-4.3 190.86-4.38 193.43-4.45 195.58-4.58 197.73-4.7 199.03-4.8L199.03-4.8 201.03-1.55Q201.03 0 191.18 0L191.18 0ZM213.48 0L210.98 0Q207.18 0 205.48-1.78 203.78-3.55 203.78-6.65L203.78-6.65Q203.78-9.9 205.56-11.65 207.33-13.4 210.98-13.4L210.98-13.4 213.53-13.4Q217.28-13.4 220.28-13.2 223.28-13 225.23-12.8L225.23-12.8 225.23-16.1Q225.23-16.55 225.13-17.03 225.03-17.5 224.53-17.8 224.03-18.1 222.83-18.1L222.83-18.1 220.33-18.1Q214.88-18.1 211.23-17.93 207.58-17.75 206.28-17.6L206.28-17.6 205.73-21.4Q205.73-22.1 209.53-22.25 213.33-22.4 222.23-22.4L222.23-22.4 224.73-22.4Q227.23-22.4 228.58-21.7 229.93-21 230.51-19.95 231.08-18.9 231.21-17.82 231.33-16.75 231.33-16L231.33-16 231.33 0 227.23 0 225.28-1Q223.18-0.65 220.23-0.33 217.28 0 213.48 0L213.48 0ZM212.28-4.3L212.28-4.3 223.73-4.3Q224.83-4.3 225.03-4.5 225.23-4.7 225.23-5.75L225.23-5.75 225.23-9.6 212.28-9.6Q210.93-9.6 210.41-8.95 209.88-8.3 209.88-6.9L209.88-6.9Q209.88-5.5 210.48-4.9 211.08-4.3 212.28-4.3ZM247.33 0L245.78 0Q241.98 0 240.58-1.6 239.18-3.2 239.18-6.4L239.18-6.4 239.18-18.1 235.08-18.1 235.08-22.4 237.18-22.4Q238.13-22.4 238.55-22.7 238.98-23 239.18-23.9L239.18-23.9 240.18-29.25 245.28-29.25 245.28-22.4 255.68-22.4 255.68-18.1 245.28-18.1 245.28-6.35Q245.28-5.1 245.88-4.7 246.48-4.3 247.68-4.3L247.68-4.3 254.73-4.3 255.23-0.5Q254.18-0.35 252.03-0.18 249.88 0 247.33 0L247.33 0ZM276.77 0L270.67 0 270.67-32.4 276.77-32.4 276.77-21.4Q278.87-21.8 281.82-22.1 284.77-22.4 288.57-22.4L288.57-22.4 291.07-22.4Q293.57-22.4 294.92-21.7 296.27-21 296.85-19.95 297.42-18.9 297.55-17.82 297.67-16.75 297.67-16L297.67-16 297.67 0 291.57 0 291.57-16.1Q291.57-18.1 289.17-18.1L289.17-18.1 278.27-18.1Q277.32-18.1 277.05-17.93 276.77-17.75 276.77-17L276.77-17 276.77 0ZM312.37 0L309.87 0Q306.07 0 304.37-1.78 302.67-3.55 302.67-6.65L302.67-6.65Q302.67-9.9 304.45-11.65 306.22-13.4 309.87-13.4L309.87-13.4 312.42-13.4Q316.17-13.4 319.17-13.2 322.17-13 324.12-12.8L324.12-12.8 324.12-16.1Q324.12-16.55 324.02-17.03 323.92-17.5 323.42-17.8 322.92-18.1 321.72-18.1L321.72-18.1 319.22-18.1Q313.77-18.1 310.12-17.93 306.47-17.75 305.17-17.6L305.17-17.6 304.62-21.4Q304.62-22.1 308.42-22.25 312.22-22.4 321.12-22.4L321.12-22.4 323.62-22.4Q326.12-22.4 327.47-21.7 328.82-21 329.4-19.95 329.97-18.9 330.1-17.82 330.22-16.75 330.22-16L330.22-16 330.22 0 326.12 0 324.17-1Q322.07-0.65 319.12-0.33 316.17 0 312.37 0L312.37 0ZM311.17-4.3L311.17-4.3 322.62-4.3Q323.72-4.3 323.92-4.5 324.12-4.7 324.12-5.75L324.12-5.75 324.12-9.6 311.17-9.6Q309.82-9.6 309.3-8.95 308.77-8.3 308.77-6.9L308.77-6.9Q308.77-5.5 309.37-4.9 309.97-4.3 311.17-4.3ZM342.07 9.3L335.97 9.3 335.97-22.4 340.07-22.4 341.32-21.75Q343.57-22 346.69-22.2 349.82-22.4 353.82-22.4L353.82-22.4 356.37-22.4Q358.87-22.4 360.22-21.75 361.57-21.1 362.14-20.1 362.72-19.1 362.84-18 362.97-16.9 362.97-16L362.97-16 362.97-6.4Q362.97-5.65 362.84-4.58 362.72-3.5 362.14-2.45 361.57-1.4 360.22-0.7 358.87 0 356.37 0L356.37 0 353.82 0Q350.02 0 347.07-0.2 344.12-0.4 342.07-0.6L342.07-0.6 342.07 9.3ZM343.62-4.3L343.62-4.3 354.47-4.3Q355.42-4.3 356.14-4.8 356.87-5.3 356.87-6.3L356.87-6.3 356.87-16.1Q356.92-17.2 356.34-17.65 355.77-18.1 354.47-18.1L354.47-18.1 351.97-18.1Q348.77-18.1 346.29-17.98 343.82-17.85 342.07-17.7L342.07-17.7 342.07-5.85Q342.07-4.75 342.29-4.53 342.52-4.3 343.62-4.3ZM374.57 9.3L368.47 9.3 368.47-22.4 372.57-22.4 373.82-21.75Q376.07-22 379.19-22.2 382.32-22.4 386.32-22.4L386.32-22.4 388.87-22.4Q391.37-22.4 392.72-21.75 394.07-21.1 394.64-20.1 395.22-19.1 395.34-18 395.47-16.9 395.47-16L395.47-16 395.47-6.4Q395.47-5.65 395.34-4.58 395.22-3.5 394.64-2.45 394.07-1.4 392.72-0.7 391.37 0 388.87 0L388.87 0 386.32 0Q382.52 0 379.57-0.2 376.62-0.4 374.57-0.6L374.57-0.6 374.57 9.3ZM376.12-4.3L376.12-4.3 386.97-4.3Q387.92-4.3 388.64-4.8 389.37-5.3 389.37-6.3L389.37-6.3 389.37-16.1Q389.42-17.2 388.84-17.65 388.27-18.1 386.97-18.1L386.97-18.1 384.47-18.1Q381.27-18.1 378.79-17.98 376.32-17.85 374.57-17.7L374.57-17.7 374.57-5.85Q374.57-4.75 374.79-4.53 375.02-4.3 376.12-4.3ZM404.41 9.8L403.06 9.8Q400.66 9.8 398.66 9.25 396.66 8.7 395.96 8.25L395.96 8.25 397.46 3.75Q398.31 4.1 399.89 4.58 401.46 5.05 403.46 5.05L403.46 5.05 404.01 5.05Q406.31 5.05 408.09 3.68 409.86 2.3 410.81 0L410.81 0 408.31 0 398.51-22.4 405.51-22.4 411.26-8.6 412.56-5 413.06-5 414.36-8.6 420.21-22.4 427.01-22.4 426.21-19.35Q425.26-17.4 424.04-14.88 422.81-12.35 421.51-9.65 420.21-6.95 418.99-4.45 417.76-1.95 416.81 0L416.81 0Q415.36 3 413.64 5.2 411.91 7.4 409.69 8.6 407.46 9.8 404.41 9.8L404.41 9.8ZM461.41 0L447.61 0Q444.26 0 442.63-1.35 441.01-2.7 441.01-5.75L441.01-5.75 441.01-16Q441.01-16.75 441.13-17.82 441.26-18.9 441.83-19.95 442.41-21 443.78-21.7 445.16-22.4 447.61-22.4L447.61-22.4 461.41-22.4Q463.91-22.4 465.26-21.7 466.61-21 467.18-19.95 467.76-18.9 467.88-17.82 468.01-16.75 468.01-16L468.01-16 468.01-6.4Q468.01-5.5 467.88-4.4 467.76-3.3 467.16-2.3 466.56-1.3 465.21-0.65 463.86 0 461.41 0L461.41 0ZM449.51-4.3L449.51-4.3 459.51-4.3Q461.96-4.3 461.96-6.3L461.96-6.3 461.96-16.1Q461.96-18.1 459.51-18.1L459.51-18.1 449.51-18.1Q447.11-18.1 447.11-16.1L447.11-16.1 447.11-6.3Q447.11-4.3 449.51-4.3ZM487.06 0L479.06 0 471.01-22.4 478.01-22.4 482.06-9.7 483.36-5.25 483.86-5.25 484.61-9.2 488.06-22.4 496.06-22.4 499.71-9.2 500.41-5.25 500.91-5.25 502.26-9.8 506.06-22.4 513.06-22.4 512.26-19.35 505.06 0 497.06 0 492.91-13.75 492.41-16.1 491.91-16.1 491.31-13.75 487.06 0ZM522.65 0L516.55 0 516.55-22.4 520.65-22.4 522.65-21.4Q524.75-21.8 527.7-22.1 530.65-22.4 534.45-22.4L534.45-22.4 536.95-22.4Q539.45-22.4 540.8-21.7 542.15-21 542.73-19.95 543.3-18.9 543.43-17.82 543.55-16.75 543.55-16L543.55-16 543.55 0 537.45 0 537.45-16.1Q537.45-18.1 535.05-18.1L535.05-18.1 524.15-18.1Q523.2-18.1 522.93-17.93 522.65-17.75 522.65-17L522.65-17 522.65 0ZM565.45 0L555.4 0Q552.9 0 551.55-0.65 550.2-1.3 549.63-2.3 549.05-3.3 548.92-4.4 548.8-5.5 548.8-6.4L548.8-6.4 548.8-16Q548.8-16.75 548.92-17.82 549.05-18.9 549.63-19.95 550.2-21 551.57-21.7 552.95-22.4 555.4-22.4L555.4-22.4 566.15-22.4Q569.45-22.4 571.32-21.78 573.2-21.15 573.97-19.75 574.75-18.35 574.75-16L574.75-16 574.75-8.6 566-8.6Q561.5-8.6 558.67-8.8 555.85-9 554.9-9.05L554.9-9.05 554.9-6.3Q554.85-4.3 557.3-4.3L557.3-4.3 559.85-4.3Q562.55-4.3 565.13-4.38 567.7-4.45 569.85-4.58 572-4.7 573.3-4.8L573.3-4.8 575.3-1.55Q575.3 0 565.45 0L565.45 0ZM554.9-16.1L554.9-12.9 568.65-12.9 568.65-16.1Q568.65-17.1 568.42-17.5 568.2-17.9 567.1-18 566-18.1 563.35-18.1L563.35-18.1 557.3-18.1Q554.9-18.1 554.9-16.1L554.9-16.1ZM586.4 0L580.3 0 580.3-22.4 584.4-22.4 586.3-21.4Q587.6-22.1 589.1-22.5 590.6-22.9 592.9-22.9L592.9-22.9Q596.55-22.9 598.82-22.1 601.1-21.3 601.85-20.9L601.85-20.9 600.1-16.55Q599.5-16.85 598.12-17.32 596.75-17.8 594.9-18.2 593.05-18.6 590.85-18.6L590.85-18.6 590.3-18.6Q587.9-18.6 587.17-17.65 586.45-16.7 586.4-14.5L586.4-14.5 586.4 0Z" opacity="1" transform="matrix(1,0,0,1,0,0)" fill="#fbfbfb" class="undefined-text-1" data-fill-palette-color="secondary" id="text-1"></path></svg></g></svg></g></svg></g></svg></g><g transform="matrix(1,0,0,1,0,0.10179318397109682)"><svg viewBox="0 0 42.9042430437511 40.717273588440044" height="40.717273588440044" width="42.9042430437511"><g><svg xmlns:x="http://ns.adobe.com/Extensibility/1.0/" xmlns:i="http://ns.adobe.com/AdobeIllustrator/10.0/" xmlns:graph="http://ns.adobe.com/Graphs/1.0/" xmlns="http://www.w3.org/2000/svg" xmlns:xlink="http://www.w3.org/1999/xlink" xmlns:a="http://ns.adobe.com/AdobeSVGViewerExtensions/3.0/" version="1.1" baseProfile="basic" x="0" y="0" viewBox="5.00000524520874 7 90.28196716308594 85.68000030517578" xml:space="preserve" height="40.717273588440044" width="42.9042430437511" class="icon-icon-0" data-fill-palette-color="accent" id="icon-0"><g fill="#2f76db" data-fill-palette-color="accent"><g fill="#2f76db" data-fill-palette-color="accent"><path fill-rule="evenodd" clip-rule="evenodd" d="M27.8 7c0.08 0 0.16 0 0.24 0 3.782 8.218 8.224 15.776 12 24 6.381-0.5 13.83 0.07 20.16-0.48C64.254 22.813 68.174 14.973 71.96 7c0.08 0 0.16 0 0.24 0 7.237 17.172 21.862 33.197 23.04 56.16 0.241 4.696-0.587 8.264-1.68 12.24-4.015 0.306-9.261-0.621-12.48 0.479 1.035 1.296 3.424 0.721 5.521 0.721 2.093 0 4.413 0 6.239 0-0.838 2.361-2.18 4.22-3.84 5.76-3.039-0.208-6.306-2.591-8.88-1.681 1.859 1.661 5.277 1.764 7.92 2.641-1.594 1.446-3.442 2.638-5.52 3.6-1.924-0.636-2.944-2.176-5.04-2.64-0.549 1.868 2.394 1.999 3.359 3.12-8.327 4.393-19.208 1.431-24-5.04-0.794-1.073-1.03-2.364-1.439-3.36-2.436 3.593-5.646 6.279-10.32 8.641-6.24 3.151-11.692 4.345-18.96 1.199 2.201-1.959 5.494-2.825 7.44-5.04-2.929-0.438-6.17 3.498-9.36 4.561-2.765-1.155-5.445-2.395-7.92-3.84 4.169-2.231 10.464-2.337 14.4-4.801-0.732-1.116-2.44-0.08-3.6 0.24-3.561 0.982-8.259 2.354-12 3.36-3.046-1.754-5.072-4.528-6.96-7.44 6.196-0.872 14.938 0.549 21.12-0.72-0.593-1.306-3.322-0.72-5.04-0.72-5.187 0-11.452 0-16.8 0-1.154-2.446-1.785-5.415-2.4-8.4 0-2.32 0-4.64 0-6.96C8.612 37.732 20.173 24.333 27.8 7zM15.08 35.32c5.439-3.361 12.757-4.843 21.36-5.04-2.758-7.242-5.683-14.318-9.12-20.88C23.27 18.07 18.997 26.517 15.08 35.32zM63.08 30.28c8.713 0.007 16.575 2.145 21.6 5.04-4.483-8.396-8.175-17.584-12.72-25.92C68.947 16.149 65.377 23.614 63.08 30.28zM32.36 61.96c4.751-0.141 4.103-16.594-0.72-15.12C27.843 48.001 28.048 62.088 32.36 61.96zM72.92 59.8c4.796-0.21 4.04-14.687-0.96-12.96C68.407 48.067 68.26 60.004 72.92 59.8zM55.64 78.04c2.686-5.315 5.897-10.104 8.641-15.36-5.681 0.16-12-0.319-17.28 0.24C50.132 67.708 52.521 73.24 55.64 78.04z" fill="#2f76db" data-fill-palette-color="accent"></path><path fill-rule="evenodd" clip-rule="evenodd" d="M47 92.68c-3.04 0-6.08 0-9.12 0 5.233-1.309 9.748-3.471 13.681-6.479 0.828-0.634 3.181-3.151 3.6-3.12-0.026-0.002 2.421 2.446 2.64 2.64 3.234 2.859 6.17 4.809 10.32 6C61.367 92.327 53.867 92.188 47 92.68z" fill="#2f76db" data-fill-palette-color="accent"></path></g></g></svg></g></svg></g></svg></g></svg></g></svg></g><defs></defs></svg><rect width="320" height="360" fill="none" stroke="none" visibility="hidden"></rect></g></svg></g></svg>